<svg width="300" height="72" viewBox="0 0 300 72" fill="none" xmlns="http://www.w3.org/2000/svg">
<path d="M66.093 45.7937L62.6037 42.3255L66.093 38.8615C68.8543 36.1203 68.8543 31.6556 66.093 28.9144L53.8286 16.7392V10.9831C53.8286 9.01163 52.3725 7.33097 50.4426 7.07866C49.3269 6.93326 48.2026 7.2711 47.3582 8.00665C46.9317 8.37871 46.5957 8.83201 46.3717 9.33236L38.945 1.98964C36.2612 -0.666062 31.9146 -0.661784 29.2308 1.99391L2.07422 28.9101C-0.6871 31.6513 -0.6871 36.116 2.07422 38.8572L5.57219 42.3297L2.07422 45.7937C-0.691408 48.5392 -0.691408 52.9953 2.07422 55.7408L11.9607 65.5553C13.2186 66.8041 14.8728 67.6123 16.6476 67.715C18.7025 67.839 20.6539 67.0991 22.0971 65.6665L31.9232 55.9375C33.1337 54.7401 35.0938 54.7401 36.3 55.9418L46.0788 65.6665C47.5219 67.0991 49.4734 67.8347 51.5282 67.715C53.303 67.608 54.9572 66.7998 56.2151 65.5553L66.1016 55.7408C68.8543 52.9953 68.8543 48.5349 66.093 45.7937ZM5.09402 35.8594C3.99552 34.7689 3.99552 32.9984 5.09402 31.9079L31.8931 5.29964C33.1036 4.09795 35.0593 4.09795 36.2698 5.29964L63.0689 31.9079C64.1674 32.9984 64.1674 34.7689 63.0689 35.8594L59.5796 39.3234L38.9881 18.8604C36.3043 16.1961 31.9534 16.1918 29.2653 18.8518L8.59198 39.3362L5.09402 35.8594ZM56.5641 42.3169L53.1436 45.7124C52.6396 46.2128 51.9762 46.5506 51.2654 46.5934C50.4469 46.6447 49.6672 46.3496 49.0943 45.7809L38.945 35.7183C36.2612 33.0583 31.9103 33.0583 29.2265 35.7183L19.0773 45.7809C18.5474 46.3069 17.8409 46.5977 17.087 46.5977C16.3332 46.5977 15.6267 46.3069 15.0968 45.7809L11.6118 42.3212L31.9318 22.1618C33.1424 20.9601 35.1024 20.9644 36.3086 22.1661L56.5641 42.3169ZM63.0732 52.743L53.1436 62.6003C52.6396 63.1006 51.9762 63.4385 51.2654 63.4812C50.4469 63.5326 49.6672 63.2375 49.0943 62.6687L38.9407 52.6104C36.2569 49.9504 31.9103 49.9504 29.2265 52.6104L19.073 62.6687C18.5 63.2375 17.7203 63.5326 16.9018 63.4812C16.191 63.4385 15.5276 63.1006 15.0236 62.6003L5.09402 52.743C3.99552 51.6525 3.99552 49.882 5.09402 48.7915L8.58767 45.3233L11.9607 48.6718C13.2186 49.9205 14.8728 50.7288 16.6476 50.8314C18.7025 50.9554 20.6539 50.2156 22.0971 48.7829L31.9189 39.0454C33.1294 37.848 35.0895 37.848 36.2957 39.0497L46.0745 48.7829C47.5176 50.2156 49.4691 50.9511 51.5239 50.8314C53.2987 50.7245 54.9529 49.9162 56.2108 48.6718L59.5882 45.319L63.0775 48.7915C64.1717 49.882 64.1717 51.6525 63.0732 52.743Z" fill="#E03C31"/>
<path d="M104.045 57.0707H101.538C101.456 57.0707 101.387 57.122 101.361 57.1904C101.361 57.1904 100.358 60.0257 99.845 61.4712C99.5779 62.2238 99.1299 63.4897 98.8843 64.4305C98.8628 64.5075 98.7982 64.5716 98.6991 64.5716C98.6173 64.5716 98.5397 64.5203 98.5182 64.4305C98.264 63.4897 97.7902 62.2238 97.5101 61.4626C96.8726 59.7307 95.9378 57.1904 95.9378 57.1904C95.9119 57.1177 95.843 57.0707 95.7612 57.0707H93.2497C93.1463 57.0707 93.0645 57.1519 93.0645 57.2546C93.0645 57.2802 93.0688 57.3059 93.0774 57.3273L97.2344 67.7106L95.6061 71.7476C95.5975 71.769 95.5932 71.7903 95.5932 71.816C95.5932 71.9186 95.675 71.9999 95.7784 71.9999H98.2123C98.2899 71.9999 98.3588 71.9528 98.3846 71.8844L104.213 57.3187C104.222 57.2973 104.226 57.2759 104.226 57.2503C104.23 57.1519 104.149 57.0707 104.045 57.0707Z" fill="#2C2C2C"/>
<path d="M84.3928 58.8625C84.3799 58.8882 84.3239 58.9694 84.2205 58.9694C84.1171 58.9694 84.0352 58.8882 84.0352 58.7855C84.0352 58.5974 84.2334 57.199 84.2334 53.6794V52.5932C84.2334 52.4906 84.1516 52.4093 84.0482 52.4093H81.653C81.5496 52.4093 81.4678 52.4906 81.4678 52.5932V67.531C81.4678 67.6336 81.5496 67.7148 81.653 67.7148H83.8543C83.9577 67.7148 84.0395 67.6336 84.0395 67.531V66.0085C84.0395 65.9059 84.1214 65.8246 84.2248 65.8246C84.2851 65.8246 84.354 65.8503 84.3971 65.9358C84.6211 66.3849 85.5688 67.9372 87.8951 67.9372C90.6607 67.9372 92.9223 65.5424 92.9223 62.3949C92.9223 59.2474 90.6607 56.8526 87.8951 56.8526C85.9522 56.8483 84.8451 57.9687 84.3928 58.8625ZM90.1481 62.3906C90.1481 64.0371 88.8342 65.3756 87.2144 65.3756C85.5947 65.3756 84.2808 64.0413 84.2808 62.3906C84.2808 60.7442 85.5947 59.4056 87.2144 59.4056C88.8342 59.4099 90.1481 60.7442 90.1481 62.3906Z" fill="#2C2C2C"/>
<path d="M202.048 61.6937C201.945 61.6937 201.863 61.6124 201.863 61.5098V59.3031C201.863 59.2005 201.945 59.1192 202.048 59.1192H208.54C208.984 59.1192 209.272 59.4827 209.285 59.8334C209.285 59.8334 209.298 60.2012 209.29 60.5775C209.165 64.9481 206.468 68.0058 202.126 68.0058C197.719 68.0058 194.518 64.5033 194.518 60.1285C194.518 55.7536 197.788 52.1614 202.195 52.1614C205.654 52.1614 207.476 54.321 207.579 54.4108C207.653 54.4792 207.657 54.599 207.588 54.6717L205.938 56.4079C205.869 56.4806 205.749 56.4849 205.675 56.4165C205.585 56.3224 204.331 54.8727 202.195 54.8727C199.321 54.8727 197.34 57.2803 197.34 60.1327C197.34 62.9852 199.339 65.3244 202.147 65.3244C204.387 65.3244 205.99 64.1441 206.378 62.2068C206.39 62.1427 206.395 62.1042 206.395 62.07C206.395 61.8647 206.227 61.6979 206.02 61.6979H202.048V61.6937Z" fill="#2C2C2C"/>
<path d="M214.657 67.8903C212.56 67.8903 210.983 66.3636 210.983 63.6352V57.259C210.983 57.1563 211.065 57.0751 211.168 57.0751H213.563C213.667 57.0751 213.749 57.1563 213.749 57.259V62.9681C213.749 64.6359 214.494 65.4356 215.859 65.4356C217.165 65.4356 218.065 64.5718 218.065 62.9681V57.259C218.065 57.1563 218.147 57.0751 218.25 57.0751H220.645C220.749 57.0751 220.831 57.1563 220.831 57.259V67.5311C220.831 67.6337 220.749 67.715 220.645 67.715H218.444C218.341 67.715 218.259 67.6337 218.259 67.5311C218.259 67.5311 218.259 66.4363 218.259 65.6366C218.259 65.534 218.177 65.4527 218.074 65.4527C217.97 65.4527 217.91 65.5169 217.88 65.6152C217.626 66.4962 216.816 67.8903 214.657 67.8903Z" fill="#2C2C2C"/>
<path d="M134.609 56.8055C131.499 56.8055 128.979 59.3073 128.979 62.3949C128.979 65.4825 131.499 67.9843 134.609 67.9843C137.72 67.9843 140.24 65.4825 140.24 62.3949C140.235 59.3073 137.715 56.8055 134.609 56.8055ZM134.609 65.3756C132.99 65.3756 131.676 64.0414 131.676 62.3906C131.676 60.7442 132.99 59.4056 134.609 59.4056C136.229 59.4056 137.543 60.7399 137.543 62.3906C137.539 64.0414 136.225 65.3756 134.609 65.3756Z" fill="#2C2C2C"/>
<path d="M126.773 59.4486C126.097 59.4486 125.42 59.7779 125.041 60.5605C124.774 61.1036 124.684 61.8648 124.684 62.8784L124.688 67.5269C124.688 67.6295 124.606 67.7108 124.503 67.7108H122.108C122.004 67.7108 121.922 67.6295 121.922 67.5269V57.2548C121.922 57.1522 122.004 57.0709 122.108 57.0709H124.309C124.412 57.0709 124.494 57.1522 124.494 57.2548C124.494 57.2548 124.494 58.3496 124.494 59.1493C124.494 59.2519 124.576 59.3332 124.679 59.3332C124.783 59.3332 124.843 59.2605 124.873 59.1621C125.063 58.5164 125.36 57.7338 125.967 57.2334C126.299 56.9597 126.721 56.8357 127.139 56.8357C127.492 56.8357 127.871 56.9212 128.255 57.165C128.307 57.1992 128.337 57.2548 128.337 57.3189V59.6453C128.337 59.748 128.255 59.8292 128.151 59.8292C128.113 59.8292 128.078 59.8164 128.048 59.7993C127.721 59.624 127.307 59.4486 126.773 59.4486Z" fill="#2C2C2C"/>
<path d="M172.415 59.4486C171.738 59.4486 171.062 59.7779 170.683 60.5605C170.416 61.1036 170.325 61.8648 170.325 62.8784L170.33 67.5269C170.33 67.6295 170.248 67.7108 170.144 67.7108H167.749C167.646 67.7108 167.564 67.6295 167.564 67.5269V57.2548C167.564 57.1522 167.646 57.0709 167.749 57.0709H169.951C170.054 57.0709 170.136 57.1522 170.136 57.2548C170.136 57.2548 170.136 58.3496 170.136 59.1493C170.136 59.2519 170.218 59.3332 170.321 59.3332C170.424 59.3332 170.485 59.2605 170.515 59.1621C170.704 58.5164 171.002 57.7338 171.609 57.2334C171.941 56.9597 172.363 56.8357 172.781 56.8357C173.134 56.8357 173.513 56.9212 173.896 57.165C173.948 57.1992 173.978 57.2548 173.978 57.3189V59.6453C173.978 59.748 173.896 59.8292 173.793 59.8292C173.754 59.8292 173.72 59.8164 173.69 59.7993C173.362 59.624 172.949 59.4486 172.415 59.4486Z" fill="#2C2C2C"/>
<path d="M228.081 59.4486C227.404 59.4486 226.728 59.7779 226.349 60.5605C226.082 61.1036 225.991 61.8648 225.991 62.8784L225.996 67.5269C225.996 67.6295 225.914 67.7108 225.81 67.7108H223.415C223.312 67.7108 223.23 67.6295 223.23 67.5269V57.2548C223.23 57.1522 223.312 57.0709 223.415 57.0709H225.617C225.72 57.0709 225.802 57.1522 225.802 57.2548C225.802 57.2548 225.802 58.3496 225.802 59.1493C225.802 59.2519 225.884 59.3332 225.987 59.3332C226.09 59.3332 226.151 59.2605 226.181 59.1621C226.37 58.5164 226.668 57.7338 227.275 57.2334C227.607 56.9597 228.029 56.8357 228.447 56.8357C228.8 56.8357 229.179 56.9212 229.563 57.165C229.614 57.1992 229.644 57.2548 229.644 57.3189V59.6453C229.644 59.748 229.563 59.8292 229.459 59.8292C229.42 59.8292 229.386 59.8164 229.356 59.7993C229.033 59.624 228.619 59.4486 228.081 59.4486Z" fill="#2C2C2C"/>
<path d="M234.805 67.8903C232.708 67.8903 231.131 66.3636 231.131 63.6352V57.259C231.131 57.1563 231.213 57.0751 231.316 57.0751H233.711C233.815 57.0751 233.897 57.1563 233.897 57.259V62.9681C233.897 64.6359 234.642 65.4356 236.007 65.4356C237.313 65.4356 238.213 64.5718 238.213 62.9681V57.259C238.213 57.1563 238.295 57.0751 238.398 57.0751H240.793C240.897 57.0751 240.979 57.1563 240.979 57.259V67.5311C240.979 67.6337 240.897 67.715 240.793 67.715H238.592C238.489 67.715 238.407 67.6337 238.407 67.5311C238.407 67.5311 238.407 66.4363 238.407 65.6366C238.407 65.534 238.325 65.4527 238.222 65.4527C238.118 65.4527 238.058 65.5169 238.028 65.6152C237.778 66.4962 236.964 67.8903 234.805 67.8903Z" fill="#2C2C2C"/>
<path d="M192.877 57.0707H190.37C190.288 57.0707 190.219 57.122 190.193 57.1904C190.193 57.1904 189.19 60.0257 188.677 61.4712C188.41 62.2238 187.962 63.4897 187.716 64.4305C187.695 64.5075 187.63 64.5716 187.531 64.5716C187.449 64.5716 187.372 64.5203 187.35 64.4305C187.096 63.4897 186.622 62.2238 186.342 61.4626C185.705 59.7307 184.77 57.1904 184.77 57.1904C184.744 57.1177 184.675 57.0707 184.593 57.0707H182.082C181.978 57.0707 181.896 57.1519 181.896 57.2546C181.896 57.2802 181.901 57.3059 181.909 57.3273L186.066 67.7106L184.438 71.7476C184.429 71.769 184.425 71.7903 184.425 71.816C184.425 71.9186 184.507 71.9999 184.61 71.9999H187.044C187.122 71.9999 187.191 71.9528 187.217 71.8844L193.045 57.3187C193.054 57.2973 193.058 57.2759 193.058 57.2503C193.062 57.1519 192.981 57.0707 192.877 57.0707Z" fill="#2C2C2C"/>
<path d="M114.737 52.4052H109.951C109.538 52.4052 109.202 52.7387 109.202 53.1493V67.5268C109.202 67.6294 109.284 67.7107 109.387 67.7107H111.782C111.885 67.7107 111.967 67.6294 111.967 67.5268V63.9517C111.967 63.7464 112.135 63.5796 112.342 63.5796H114.733C117.938 63.5796 120.458 61.0779 120.458 57.9902C120.462 54.9069 117.942 52.4052 114.737 52.4052ZM114.496 61.0736H112.346C112.14 61.0736 111.972 60.9068 111.972 60.7015V55.2875C111.972 55.0822 112.14 54.9154 112.346 54.9154H114.496C116.305 54.9154 117.692 56.2925 117.692 57.9945C117.692 59.6923 116.305 61.0736 114.496 61.0736Z" fill="#2C2C2C"/>
<path d="M178.23 59.6154C178.23 59.5128 178.312 59.4315 178.416 59.4315H180.634C180.738 59.4315 180.819 59.3503 180.819 59.2476V57.2633C180.819 57.1607 180.738 57.0795 180.634 57.0795H178.157C178.054 57.0795 177.972 56.9982 177.972 56.8956V54.4238C177.972 54.3211 177.89 54.2399 177.787 54.2399H175.646C175.542 54.2399 175.46 54.3211 175.46 54.4238V64.4949C175.46 67.0907 176.731 67.9888 178.394 67.9888C179.45 67.9888 180.078 67.668 180.337 67.544C180.419 67.5055 180.458 67.4414 180.458 67.3516L180.453 65.7393C180.453 65.611 180.337 65.5084 180.182 65.5683C179.846 65.6923 179.557 65.7736 179.217 65.7736C178.721 65.7736 178.235 65.5426 178.235 64.636V59.6154H178.23Z" fill="#2C2C2C"/>
<path d="M148.373 67.933C151.138 67.933 153.4 65.5382 153.4 62.3907C153.4 59.2432 151.138 56.8484 148.373 56.8484C146.046 56.8484 145.099 58.4008 144.875 58.8498C144.832 58.9353 144.758 58.961 144.702 58.961C144.599 58.961 144.517 58.8797 144.517 58.7771V57.2547C144.517 57.152 144.435 57.0708 144.332 57.0708H142.131C142.027 57.0708 141.945 57.152 141.945 57.2547V71.8161C141.945 71.9187 142.027 72 142.131 72H144.526C144.629 72 144.711 71.9187 144.711 71.8161V71.1019C144.711 67.5824 144.513 66.184 144.513 65.9958C144.513 65.8932 144.595 65.8119 144.698 65.8119C144.801 65.8119 144.853 65.8889 144.87 65.9188C145.323 66.8169 146.43 67.933 148.373 67.933ZM147.692 65.3757C146.072 65.3757 144.758 64.0414 144.758 62.3907C144.758 60.7443 146.072 59.4057 147.692 59.4057C149.312 59.4057 150.626 60.74 150.626 62.3907C150.626 64.0414 149.312 65.3757 147.692 65.3757Z" fill="#2C2C2C"/>
<path d="M160.331 56.8055C157.221 56.8055 154.934 59.3073 154.934 62.3949C154.934 65.4825 157.307 67.9843 160.538 67.9843C162.287 67.9843 163.627 67.377 164.519 66.6671C164.596 66.603 164.613 66.4918 164.557 66.4105L163.562 65.0463C163.502 64.9651 163.386 64.9437 163.299 65.0036C162.86 65.2901 162.214 65.7947 160.749 65.7947C159.513 65.7947 158.414 65.0805 157.893 63.9473C157.841 63.8404 157.772 63.6821 157.772 63.6137C157.772 63.5111 157.854 63.4298 157.958 63.4298C157.958 63.4298 164.398 63.4298 164.846 63.4298C165.147 63.4298 165.583 63.2245 165.608 62.7028C165.781 59.4099 163.933 56.8055 160.331 56.8055ZM162.705 61.5311H157.872C157.768 61.5311 157.686 61.4498 157.686 61.3472C157.686 61.3001 157.729 61.1419 157.772 61.0179C158.164 59.8076 159.151 59.0977 160.473 59.0977C161.589 59.0977 162.421 59.6494 162.856 60.4961C162.981 60.7399 163.084 61.0521 163.084 61.159C163.08 61.3643 162.912 61.5311 162.705 61.5311Z" fill="#2C2C2C"/>
<path d="M232.737 6.86059C232.737 9.93538 235.257 12.4329 238.368 12.4329C240.504 12.4329 241.831 11.3124 242.516 10.5426C242.581 10.4699 242.581 10.3545 242.512 10.2861L241.047 8.86626C240.978 8.79784 240.858 8.79356 240.78 8.86626C240.371 9.25542 239.63 9.83275 238.363 9.83275C236.744 9.83275 235.434 8.50276 235.434 6.86059C235.434 5.21842 236.748 3.88843 238.363 3.88843C239.63 3.88843 240.371 4.47004 240.78 4.85492C240.858 4.92762 240.978 4.92334 241.047 4.85492L242.507 3.43513C242.581 3.3667 242.581 3.25124 242.512 3.17854C241.827 2.41305 240.496 1.28833 238.363 1.28833C235.257 1.28833 232.737 3.7858 232.737 6.86059Z" fill="#E03C31"/>
<path d="M266.166 3.81137C266.257 3.81137 266.33 3.74723 266.36 3.64887C266.619 2.76791 267.497 1.37805 269.707 1.37805C271.805 1.37805 273.477 2.90048 273.477 5.62033V11.9752C273.477 12.0778 273.395 12.1591 273.291 12.1591H270.896C270.793 12.1591 270.711 12.0778 270.711 11.9752V6.28746C270.711 4.62818 269.918 3.82848 268.587 3.82848C267.299 3.82848 266.395 4.68805 266.395 6.28746V11.9795C266.395 12.0821 266.313 12.1634 266.209 12.1634H263.814C263.711 12.1634 263.629 12.0821 263.629 11.9795V6.28746C263.629 4.62818 262.836 3.82848 261.505 3.82848C260.217 3.82848 259.313 4.68805 259.313 6.28746V11.9795C259.313 12.0821 259.231 12.1634 259.127 12.1634H256.732C256.629 12.1634 256.547 12.0821 256.547 11.9795V1.73728C256.547 1.63464 256.629 1.55339 256.732 1.55339H258.933C259.037 1.55339 259.119 1.63464 259.119 1.73728C259.119 1.73728 259.119 2.82778 259.119 3.62748C259.119 3.73012 259.201 3.81137 259.304 3.81137C259.407 3.81137 259.468 3.74723 259.498 3.64887C259.756 2.76791 260.626 1.37805 262.694 1.37805C264.215 1.37805 265.447 2.19486 266.007 3.69591C266.02 3.77716 266.106 3.81137 266.166 3.81137Z" fill="#E03C31"/>
<path d="M249.193 1.28833C246.083 1.28833 243.563 3.78152 243.563 6.86059C243.563 9.93538 246.083 12.4329 249.193 12.4329C252.304 12.4329 254.824 9.93966 254.824 6.86059C254.824 3.7858 252.304 1.28833 249.193 1.28833ZM249.193 9.83275C247.574 9.83275 246.264 8.50276 246.264 6.86059C246.264 5.21842 247.578 3.88843 249.193 3.88843C250.809 3.88843 252.123 5.21842 252.123 6.86059C252.127 8.50276 250.813 9.83275 249.193 9.83275Z" fill="#E03C31"/>
<path d="M229.834 12.4328C230.783 12.4328 231.553 11.6707 231.553 10.7307C231.553 9.79072 230.783 9.02869 229.834 9.02869C228.885 9.02869 228.115 9.79072 228.115 10.7307C228.115 11.6707 228.885 12.4328 229.834 12.4328Z" fill="#E03C31"/>
<path d="M277.306 12.4328C278.256 12.4328 279.025 11.6707 279.025 10.7307C279.025 9.79072 278.256 9.02869 277.306 9.02869C276.357 9.02869 275.587 9.79072 275.587 10.7307C275.587 11.6707 276.357 12.4328 277.306 12.4328Z" fill="#E03C31"/>
<path d="M283.29 9.03304C283.195 9.03304 283.126 8.96889 283.105 8.89192C282.859 7.95537 282.411 6.6938 282.144 5.94114C281.632 4.50424 280.628 1.67321 280.628 1.67321C280.602 1.60051 280.533 1.55347 280.451 1.55347H277.944C277.841 1.55347 277.759 1.63472 277.759 1.73736C277.759 1.76301 277.763 1.7844 277.772 1.80578L281.881 12.048C281.912 12.1164 281.976 12.1592 282.054 12.1592H284.522C284.6 12.1592 284.664 12.1121 284.694 12.048L288.804 1.80578C288.813 1.7844 288.817 1.76301 288.817 1.73736C288.817 1.63472 288.735 1.55347 288.632 1.55347H286.125C286.043 1.55347 285.974 1.60478 285.948 1.67321C285.948 1.67321 284.944 4.49997 284.432 5.94114C284.165 6.68953 283.717 7.95109 283.471 8.89192C283.454 8.96462 283.385 9.03304 283.29 9.03304Z" fill="#E03C31"/>
<path d="M296.321 1.37805C298.419 1.37805 299.996 2.90048 299.996 5.62033V11.9752C299.996 12.0778 299.914 12.1591 299.81 12.1591H297.415C297.312 12.1591 297.23 12.0778 297.23 11.9752V6.28746C297.23 4.62818 296.485 3.82848 295.119 3.82848C293.814 3.82848 292.914 4.68805 292.914 6.28746V11.9795C292.914 12.0821 292.832 12.1634 292.728 12.1634H290.333C290.23 12.1634 290.148 12.0821 290.148 11.9795V1.73728C290.148 1.63464 290.23 1.55339 290.333 1.55339H292.535C292.638 1.55339 292.72 1.63464 292.72 1.73728C292.72 1.73728 292.72 2.82778 292.72 3.62748C292.72 3.73012 292.802 3.81137 292.905 3.81137C293.008 3.81137 293.069 3.74723 293.099 3.64887C293.353 2.76791 294.163 1.37805 296.321 1.37805Z" fill="#E03C31"/>
<path d="M98.1132 25.9293C99.9095 24.5053 101.068 22.3585 101.068 19.9209C101.068 15.6358 97.5704 12.1633 93.1204 12.1633H82.8505C82.0837 12.1633 81.4634 12.7791 81.4634 13.5404V39.1223C81.4634 39.8835 82.0837 40.4993 82.8505 40.4993H94.3567C98.8024 40.4993 102.305 37.0268 102.305 32.7418C102.3 29.7782 100.612 27.2379 98.1132 25.9293ZM86.5897 17.5004C86.5897 17.1198 86.8999 16.8119 87.2833 16.8119H92.0951C94.2706 16.8119 95.9377 18.4711 95.9377 20.5153C95.9377 22.5595 94.2663 24.2187 92.0951 24.2187H87.2833C86.8999 24.2187 86.5897 23.9108 86.5897 23.5302V17.5004ZM93.3315 35.8508H87.2833C86.8999 35.8508 86.5897 35.5429 86.5897 35.1623V29.1324C86.5897 28.7518 86.8999 28.4439 87.2833 28.4439H93.3315C95.5069 28.4439 97.1741 30.1032 97.1741 32.1474C97.1741 34.1915 95.5026 35.8508 93.3315 35.8508Z" fill="#E03C31"/>
<path d="M135.945 25.5061C135.945 25.3179 136.1 25.164 136.289 25.164H140.399C140.589 25.164 140.744 25.01 140.744 24.8218V21.1483C140.744 20.9602 140.589 20.8062 140.399 20.8062H135.815C135.626 20.8062 135.471 20.6523 135.471 20.4641V15.8797C135.471 15.6916 135.316 15.5376 135.126 15.5376H131.163C130.973 15.5376 130.818 15.6916 130.818 15.8797V34.5209C130.818 39.3277 133.175 40.9912 136.246 40.9912C138.198 40.9912 139.361 40.4011 139.843 40.1702C139.994 40.0975 140.067 39.9777 140.067 39.8109L140.059 36.8259C140.059 36.5907 139.839 36.4026 139.555 36.5095C138.93 36.7404 138.404 36.8901 137.767 36.8901C136.849 36.8901 135.945 36.4624 135.945 34.7818V25.5061V25.5061Z" fill="#E03C31"/>
<path d="M126.049 20.7976H121.978C121.789 20.7976 121.629 20.9516 121.629 21.144V23.9622C121.629 24.1504 121.474 24.3086 121.281 24.3086C121.173 24.3086 121.039 24.2616 120.957 24.0991C120.544 23.2694 118.791 20.3956 114.487 20.3956C109.374 20.3956 105.182 24.8261 105.182 30.6549C105.182 36.4838 109.374 40.9142 114.487 40.9142C118.791 40.9142 120.548 38.0404 120.957 37.2108C121.039 37.0483 121.173 37.0055 121.281 37.0055C121.47 37.0055 121.629 37.1595 121.629 37.3476V40.1658C121.629 40.354 121.785 40.5079 121.978 40.5079H126.049C126.239 40.5079 126.398 40.354 126.398 40.1615V21.1397C126.394 20.9516 126.239 20.7976 126.049 20.7976ZM115.745 36.1716C112.747 36.1716 110.317 33.6998 110.317 30.6506C110.317 27.6015 112.747 25.1297 115.745 25.1297C118.743 25.1297 121.173 27.6015 121.173 30.6506C121.173 33.6998 118.743 36.1716 115.745 36.1716Z" fill="#E03C31"/>
<path d="M158.703 24.1118C157.867 22.4526 155.812 20.3827 152.219 20.3827C147.106 20.3827 142.915 24.8132 142.915 30.642C142.915 36.4666 147.106 40.9013 152.219 40.9013C156.523 40.9013 158.281 38.0275 158.69 37.1979C158.772 37.0354 158.905 36.9926 159.013 36.9926C159.202 36.9926 159.358 37.1466 159.358 37.3347V40.1529C159.358 40.3411 159.513 40.495 159.702 40.495H163.773C163.963 40.495 164.118 40.3411 164.118 40.1529V12.5097C164.118 12.3216 163.963 12.1676 163.773 12.1676H159.336C159.146 12.1676 158.991 12.3216 158.991 12.5097V13.8312C158.991 20.5581 159.366 23.6243 159.362 23.9707C159.358 24.1546 159.215 24.3128 159.009 24.3128C158.961 24.3085 158.785 24.2786 158.703 24.1118ZM153.473 25.1211C156.471 25.1211 158.901 27.5929 158.901 30.642C158.901 33.6912 156.471 36.163 153.473 36.163C150.475 36.163 148.045 33.6912 148.045 30.642C148.049 27.5929 150.479 25.1211 153.473 25.1211Z" fill="#E03C31"/>
<path d="M202.664 20.4684C206.55 20.4684 209.466 23.2951 209.466 28.3457V40.1445C209.466 40.3327 209.311 40.4866 209.122 40.4866H204.689C204.5 40.4866 204.344 40.3327 204.344 40.1445V29.5773C204.344 26.494 202.966 25.01 200.433 25.01C198.016 25.01 196.349 26.6051 196.349 29.5773V40.1445C196.349 40.3327 196.194 40.4866 196.004 40.4866H191.572C191.382 40.4866 191.227 40.3327 191.227 40.1445V21.1398C191.227 20.9516 191.382 20.7977 191.572 20.7977L195.643 20.7934C195.832 20.7934 195.987 20.9474 195.987 21.1355C195.987 21.1355 195.987 23.1583 195.987 24.6422C195.987 24.8304 196.142 24.9844 196.332 24.9844C196.521 24.9844 196.638 24.8646 196.689 24.685C197.168 23.0471 198.671 20.4684 202.664 20.4684Z" fill="#E03C31"/>
<path d="M229.067 38.5065C229.067 42.8344 226.426 45.1052 222.506 45.1052C219.607 45.1052 217.897 43.942 217.22 43.54C217.048 43.4373 216.837 43.5015 216.742 43.6512L214.713 46.8243C214.614 46.9825 214.662 47.1835 214.812 47.2905C216.032 48.15 218.853 49.5741 222.786 49.5741C228.494 49.5741 233.84 46.2898 233.84 38.3184V21.1397C233.84 20.9516 233.685 20.7976 233.491 20.7976H229.42C229.231 20.7976 229.071 20.9516 229.071 21.144V23.9622C229.071 24.1504 228.916 24.3086 228.722 24.3086C228.615 24.3086 228.481 24.2616 228.399 24.0991C227.986 23.2694 226.232 20.3956 221.929 20.3956C216.816 20.3956 212.624 24.8261 212.624 30.6549C212.624 36.4838 216.816 40.4524 221.929 40.4524C225.875 40.4524 227.99 38.0361 228.399 37.2108C228.481 37.0483 228.615 37.0055 228.722 37.0055C228.912 37.0055 229.071 37.1595 229.071 37.3476V38.5065H229.067ZM223.183 36.1716C220.184 36.1716 217.755 33.6998 217.755 30.6506C217.755 27.6015 220.184 25.1297 223.183 25.1297C226.181 25.1297 228.61 27.6015 228.61 30.6506C228.61 33.6998 226.176 36.1716 223.183 36.1716Z" fill="#E03C31"/>
<path d="M293.194 20.4684C297.079 20.4684 300 23.2951 300 28.3457V40.1445C300 40.3327 299.845 40.4866 299.655 40.4866H295.223C295.033 40.4866 294.878 40.3327 294.878 40.1445V29.5773C294.878 26.494 293.5 25.01 290.967 25.01C288.55 25.01 286.883 26.6051 286.883 29.5773V40.1445C286.883 40.3327 286.728 40.4866 286.538 40.4866H282.105C281.916 40.4866 281.761 40.3327 281.761 40.1445V21.1398C281.761 20.9516 281.916 20.7977 282.105 20.7977L286.176 20.7934C286.366 20.7934 286.521 20.9474 286.521 21.1355C286.521 21.1355 286.521 23.1583 286.521 24.6422C286.521 24.8304 286.676 24.9844 286.866 24.9844C287.055 24.9844 287.171 24.8646 287.223 24.685C287.697 23.0471 289.2 20.4684 293.194 20.4684Z" fill="#E03C31"/>
<path d="M276.979 20.7976H272.908C272.719 20.7976 272.559 20.9516 272.559 21.144V23.9622C272.559 24.1504 272.404 24.3086 272.21 24.3086C272.103 24.3086 271.969 24.2616 271.887 24.1033C271.474 23.2737 269.72 20.3999 265.417 20.3999C260.303 20.3999 256.112 24.8303 256.112 30.6592C256.112 36.4838 260.303 40.9185 265.417 40.9185C269.72 40.9185 271.478 38.0447 271.887 37.215C271.969 37.0525 272.103 37.0098 272.21 37.0098C272.4 37.0098 272.559 37.1637 272.559 37.3562V40.1744C272.559 40.3625 272.714 40.5165 272.908 40.5165H276.979C277.169 40.5165 277.328 40.3625 277.328 40.1701V21.1397C277.328 20.9516 277.173 20.7976 276.979 20.7976ZM266.675 36.1716C263.676 36.1716 261.247 33.6998 261.247 30.6506C261.247 27.6015 263.676 25.1297 266.675 25.1297C269.673 25.1297 272.103 27.6015 272.103 30.6506C272.103 33.6998 269.673 36.1716 266.675 36.1716Z" fill="#E03C31"/>
<path d="M246.704 28.6577C244.765 28.2814 242.62 27.9906 242.62 26.0918C242.62 24.7875 243.994 23.9408 245.885 23.9408C247.858 23.9408 249.534 24.98 250.426 25.7797C250.559 25.8994 250.818 25.8481 250.908 25.6984L252.834 22.6022C252.907 22.4611 252.911 22.2772 252.765 22.1532C251.054 20.7078 248.241 19.9423 245.652 19.9423C240.225 19.9423 237.493 23.124 237.493 26.2501C237.493 30.0433 240.5 31.4888 243.766 32.1944C246.139 32.7076 248.582 33.1908 248.582 34.8715C248.582 36.1117 247.41 37.1081 244.937 37.1081C242.654 37.1081 240.505 35.761 239.557 35.0767C239.385 34.9527 239.186 34.9827 239.061 35.1409L237.011 38.344C236.938 38.4723 236.946 38.6519 237.084 38.7759C238.398 39.969 241.491 41.3546 245.101 41.3546C250.365 41.3546 253.725 38.4637 253.725 34.8544C253.717 30.5736 249.986 29.2949 246.704 28.6577Z" fill="#E03C31"/>
<path d="M177.666 20.3058C171.911 20.3058 167.245 24.9372 167.245 30.6506C167.245 36.364 171.911 40.9954 177.666 40.9954C183.421 40.9954 188.086 36.364 188.086 30.6506C188.086 24.9372 183.421 20.3058 177.666 20.3058ZM177.666 36.1716C174.668 36.1716 172.238 33.6997 172.238 30.6506C172.238 27.6015 174.668 25.1297 177.666 25.1297C180.664 25.1297 183.094 27.6015 183.094 30.6506C183.094 33.6997 180.664 36.1716 177.666 36.1716Z" fill="#E03C31"/>
</svg>
