<svg xmlns="http://www.w3.org/2000/svg" version="1.1" xmlns:xlink="http://www.w3.org/1999/xlink" xmlns:svgjs="http://svgjs.dev/svgjs" width="2000" height="1500" viewBox="0 0 2000 1500"><rect width="2000" height="1500" fill="#ffffff"></rect><g transform="matrix(0.75,0,0,0.75,249.090909090909,554.9835641743302)"><svg viewBox="0 0 396 103" data-background-color="#ffffff" preserveAspectRatio="xMidYMid meet" height="520" width="2000" xmlns="http://www.w3.org/2000/svg" xmlns:xlink="http://www.w3.org/1999/xlink"><g id="tight-bounds" transform="matrix(1,0,0,1,0.2400000000000091,0.004340743702528016)"><svg viewBox="0 0 395.52 102.99131851259496" height="102.99131851259496" width="395.52"><g><svg viewBox="0 0 395.52 102.99131851259496" height="102.99131851259496" width="395.52"><g><svg viewBox="0 0 395.52 102.99131851259496" height="102.99131851259496" width="395.52"><g id="textblocktransform"><svg viewBox="0 0 395.52 102.99131851259496" height="102.99131851259496" width="395.52" id="textblock"><g><svg viewBox="0 0 395.52 102.99131851259496" height="102.99131851259496" width="395.52"><rect width="395.52" height="102.99131851259496" x="0" y="0" opacity="1" fill="#ff4d4f" data-fill-palette-color="tertiary"></rect><g transform="matrix(1,0,0,1,23.607599999999998,23.607599999999998)"><svg width="348.3048" viewBox="3.91 -38.38 244.21 39.11" height="55.77611851259496" data-palette-color="#ffffff"><path d="M11.79-25.93L11.79-1.29Q11.79-0.56 11.49-0.28 11.18 0 10.45 0L10.45 0 5.25 0Q4.52 0 4.21-0.28 3.91-0.56 3.91-1.29L3.91-1.29 3.91-28.47Q3.91-30.91 4.36-32.34 4.81-33.76 6.12-34.39 7.42-35.01 9.94-35.01L9.94-35.01 16.41-35.01Q29.15-35.01 29.15-25.22L29.15-25.22Q29.15-22.24 28.15-20.34 27.15-18.43 25.66-17.37 24.17-16.31 22.73-15.77L22.73-15.77 22.73-15.65Q24.37-14.58 25.84-12.83 27.32-11.08 28.52-9.05 29.71-7.01 30.54-5.02 31.37-3.03 31.69-1.46L31.69-1.46Q31.84-0.73 31.7-0.37 31.57 0 30.86 0L30.86 0 25.22 0Q24.58 0 24.11-0.27 23.63-0.54 23.24-1.51L23.24-1.51Q21.39-6.18 18.97-9.12 16.55-12.06 14.31-13.84L14.31-13.84Q12.87-14.99 12.87-15.48L12.87-15.48Q12.87-15.87 13.33-16.55L13.33-16.55Q13.62-16.97 14.18-17.55 14.75-18.14 15.16-18.43L15.16-18.43Q15.58-18.73 15.83-18.8 16.09-18.87 16.63-18.87L16.63-18.87Q18.43-18.87 19.64-20.12 20.85-21.36 20.85-24.05L20.85-24.05Q20.85-26.59 19.57-27.77 18.29-28.96 16.04-28.96L16.04-28.96 14.58-28.96Q12.96-28.96 12.38-28.27 11.79-27.59 11.79-25.93L11.79-25.93ZM48.17 0.61L48.17 0.61Q44.04 0.61 40.99-0.72 37.94-2.05 36.25-4.86 34.57-7.67 34.57-12.11L34.57-12.11Q34.57-18.77 37.99-22.19 41.4-25.61 47.07-25.61L47.07-25.61Q50.75-25.61 53.31-24.29 55.86-22.97 57.19-20.65 58.52-18.33 58.52-15.36L58.52-15.36Q58.52-12.45 57.03-11.3 55.54-10.16 52.68-10.16L52.68-10.16 42.21-10.16Q42.4-7.64 44.05-6.32 45.7-5 48.53-5L48.53-5Q50.78-5 52.13-5.68 53.49-6.35 54.03-6.74L54.03-6.74Q54.49-7.08 55.08-7.06L55.08-7.06Q55.54-7.06 56.41-6.87 57.27-6.69 58.13-6.2L58.13-6.2Q58.74-5.88 58.74-5.32L58.74-5.32Q58.74-5 58.62-4.42L58.62-4.42Q58.54-4.08 58.37-3.43 58.2-2.78 57.93-2.22L57.93-2.22Q57.79-1.95 57.47-1.71L57.47-1.71Q56.98-1.37 55.89-0.81 54.81-0.24 52.93 0.18 51.05 0.61 48.17 0.61ZM42.16-15.16L42.16-15.16 50.12-15.16Q51.36-15.16 51.36-16.31L51.36-16.31Q51.36-18.04 50.28-19.23 49.19-20.41 47.02-20.41L47.02-20.41Q44.65-20.41 43.54-18.9 42.43-17.38 42.16-15.16ZM70.36 0.61L70.36 0.61Q66.77 0.61 64.66-1.4 62.54-3.42 62.54-6.96L62.54-6.96Q62.54-8.79 63.22-10.36 63.89-11.94 65.56-13.15 67.23-14.36 70.25-15.09 73.26-15.82 77.95-15.94L77.95-15.94Q77.95-18.16 76.84-19.14 75.73-20.12 73.51-20.12L73.51-20.12Q71.5-20.12 70.23-19.43 68.96-18.75 68.65-18.51L68.65-18.51Q68.31-18.21 67.82-18.29L67.82-18.29Q67.16-18.38 66.41-18.63 65.67-18.87 64.81-19.19L64.81-19.19Q64.69-19.24 64.55-19.35 64.4-19.46 64.37-19.68L64.37-19.68Q64.37-19.8 64.4-19.98 64.42-20.17 64.52-20.65L64.52-20.65Q64.62-21.14 64.81-21.86 65.01-22.58 65.18-22.97L65.18-22.97Q65.4-23.39 65.91-23.75L65.91-23.75Q66.33-24.1 68.43-24.85 70.53-25.61 74.51-25.61L74.51-25.61Q85.47-25.61 85.47-14.94L85.47-14.94 85.47-1.12Q85.47-0.66 85.21-0.33 84.96 0 84.35 0L84.35 0 80.68 0Q80.29 0 79.99-0.11 79.68-0.22 79.41-0.54L79.41-0.54 77.9-2.49 77.73-2.49Q76.61-0.85 74.71-0.12 72.82 0.61 70.36 0.61ZM73.04-5.05L73.04-5.05Q75.29-5.05 76.44-6.2 77.58-7.35 77.9-8.57L77.9-8.57 77.9-11.28Q74.51-11.28 72.81-10.75 71.11-10.23 70.55-9.39 69.99-8.54 69.99-7.57L69.99-7.57Q69.99-6.15 70.87-5.6 71.75-5.05 73.04-5.05ZM100.36-1.83L95.26 0.51Q94.74 0.73 94.52 0.73L94.52 0.73Q94.3 0.73 94.06 0.56L94.06 0.56Q93.5 0.17 92.78-1.35 92.06-2.88 92.06-6.05L92.06-6.05 92.06-34.33Q92.06-34.91 92.3-35.23L92.3-35.23Q93.33-36.57 95.31-38.13L95.31-38.13Q95.65-38.38 95.92-38.38L95.92-38.38Q96.23-38.38 96.53-38.13L96.53-38.13Q97.58-37.33 98.3-36.62 99.02-35.91 99.53-35.23L99.53-35.23Q99.77-34.91 99.77-34.33L99.77-34.33 99.77-7.54Q99.77-5.93 100.04-4.8 100.31-3.66 100.68-2.98L100.68-2.98Q101.09-2.17 100.36-1.83L100.36-1.83ZM125.38 0L113.1 0Q110.59 0 109.28-0.63 107.97-1.27 107.52-2.71 107.07-4.15 107.07-6.54L107.07-6.54 107.07-28.47Q107.07-30.91 107.52-32.34 107.97-33.76 109.28-34.39 110.59-35.01 113.1-35.01L113.1-35.01 124.57-35.01Q125.16-35.01 125.45-34.81L125.45-34.81Q126.09-34.38 126.77-33.76 127.46-33.15 128.21-32.3L128.21-32.3Q128.46-31.98 128.46-31.79L128.46-31.79Q128.46-31.57 128.21-31.3L128.21-31.3Q127.46-30.44 126.77-29.83 126.09-29.22 125.45-28.78L125.45-28.78Q125.11-28.59 124.57-28.59L124.57-28.59 117.74-28.59Q116.13-28.59 115.54-27.91 114.96-27.22 114.96-25.56L114.96-25.56 114.96-20.83 123.72-20.83Q124.31-20.83 124.6-20.63L124.6-20.63Q125.23-20.19 125.92-19.58 126.6-18.97 127.36-18.12L127.36-18.12Q127.6-17.8 127.6-17.6L127.6-17.6Q127.6-17.38 127.36-17.11L127.36-17.11Q126.6-16.26 125.92-15.65 125.23-15.04 124.6-14.6L124.6-14.6Q124.26-14.4 123.72-14.4L123.72-14.4 114.96-14.4 114.96-9.47Q114.96-7.84 115.54-7.13 116.13-6.42 117.74-6.42L117.74-6.42 125.38-6.42Q125.97-6.42 126.26-6.23L126.26-6.23Q126.89-5.79 127.58-5.18 128.26-4.57 129.02-3.71L129.02-3.71Q129.26-3.39 129.26-3.2L129.26-3.2Q129.26-2.98 129.02-2.71L129.02-2.71Q128.26-1.86 127.58-1.25 126.89-0.63 126.26-0.2L126.26-0.2Q125.92 0 125.38 0L125.38 0ZM140.73 0.61L140.73 0.61Q138.12 0.61 136.4 0.17 134.68-0.27 133.64-0.89 132.6-1.51 132.02-2.03L132.02-2.03Q131.58-2.44 131.92-2.95L131.92-2.95 134.41-6.64Q134.95-7.42 135.63-6.74L135.63-6.74Q136.34-6.05 137.55-5.41 138.76-4.76 140.56-4.76L140.56-4.76Q142.18-4.76 143.21-5.31 144.25-5.86 144.25-6.91L144.25-6.91Q144.25-7.64 143.79-8.11 143.32-8.57 142.15-9.06 140.98-9.55 138.88-10.3L138.88-10.3Q135.78-11.43 134.19-13.01 132.6-14.6 132.6-17.65L132.6-17.65Q132.6-20.46 134.15-22.22 135.71-23.97 138.13-24.79 140.56-25.61 143.2-25.61L143.2-25.61Q146.55-25.61 147.9-24.99 149.26-24.37 149.65-24.02L149.65-24.02Q150.01-23.71 150.16-23.29L150.16-23.29Q150.48-22.34 150.65-20.78L150.65-20.78Q150.74-19.87 150.18-19.58L150.18-19.58Q149.89-19.41 149.26-19.21 148.62-19.02 147.99-18.87 147.35-18.73 147.03-18.73L147.03-18.73Q146.94-18.73 146.83-18.79 146.72-18.85 146.45-19.09L146.45-19.09Q146.13-19.41 145.36-19.82 144.59-20.24 143.25-20.24L143.25-20.24Q141.93-20.24 141.04-19.81 140.15-19.38 140.15-18.31L140.15-18.31Q140.15-17.14 141.28-16.55 142.42-15.97 145.03-15.04L145.03-15.04Q147.08-14.33 148.61-13.49 150.13-12.65 150.96-11.29 151.79-9.94 151.79-7.64L151.79-7.64Q151.79-4.66 150.17-2.84 148.55-1.03 146.02-0.21 143.49 0.61 140.73 0.61ZM166.44 0.61L166.44 0.61Q158.29 0.61 158.29-7.86L158.29-7.86 158.29-19.31 155.53-19.31Q154.79-19.31 154.51-19.62 154.23-19.92 154.23-20.65L154.23-20.65 154.23-23.66Q154.23-24.39 154.51-24.69 154.79-25 155.53-25L155.53-25 158.29-25 158.29-28.93Q158.29-29.52 158.53-29.83L158.53-29.83Q159.56-31.18 161.53-32.74L161.53-32.74Q161.87-32.98 162.14-32.98L162.14-32.98Q162.44-32.98 162.73-32.74L162.73-32.74Q163.78-31.93 164.5-31.23 165.22-30.52 165.73-29.83L165.73-29.83Q165.98-29.52 165.98-28.93L165.98-28.93 165.98-25 170.3-25Q171.03-25 171.31-24.69 171.59-24.39 171.59-23.66L171.59-23.66 171.59-20.65Q171.59-19.92 171.31-19.62 171.03-19.31 170.3-19.31L170.3-19.31 165.98-19.31 165.98-9.2Q165.98-5.3 168.81-5.3L168.81-5.3Q169.25-5.3 169.61-5.38 169.98-5.47 170.25-5.57L170.25-5.57Q170.76-5.76 170.97-5.71 171.18-5.66 171.35-5.18L171.35-5.18 172.76-1.39Q172.98-0.78 172.47-0.51L172.47-0.51Q172.1-0.34 170.7 0.13 169.3 0.61 166.44 0.61ZM183.31 0.61L183.31 0.61Q179.72 0.61 177.61-1.4 175.5-3.42 175.5-6.96L175.5-6.96Q175.5-8.79 176.17-10.36 176.84-11.94 178.51-13.15 180.18-14.36 183.2-15.09 186.21-15.82 190.9-15.94L190.9-15.94Q190.9-18.16 189.79-19.14 188.68-20.12 186.46-20.12L186.46-20.12Q184.46-20.12 183.19-19.43 181.92-18.75 181.6-18.51L181.6-18.51Q181.26-18.21 180.77-18.29L180.77-18.29Q180.11-18.38 179.36-18.63 178.62-18.87 177.77-19.19L177.77-19.19Q177.64-19.24 177.5-19.35 177.35-19.46 177.33-19.68L177.33-19.68Q177.33-19.8 177.35-19.98 177.38-20.17 177.47-20.65L177.47-20.65Q177.57-21.14 177.77-21.86 177.96-22.58 178.13-22.97L178.13-22.97Q178.35-23.39 178.86-23.75L178.86-23.75Q179.28-24.1 181.38-24.85 183.48-25.61 187.46-25.61L187.46-25.61Q198.42-25.61 198.42-14.94L198.42-14.94 198.42-1.12Q198.42-0.66 198.16-0.33 197.91 0 197.3 0L197.3 0 193.63 0Q193.24 0 192.94-0.11 192.63-0.22 192.37-0.54L192.37-0.54 190.85-2.49 190.68-2.49Q189.56-0.85 187.67-0.12 185.77 0.61 183.31 0.61ZM185.99-5.05L185.99-5.05Q188.24-5.05 189.39-6.2 190.53-7.35 190.85-8.57L190.85-8.57 190.85-11.28Q187.46-11.28 185.76-10.75 184.06-10.23 183.5-9.39 182.94-8.54 182.94-7.57L182.94-7.57Q182.94-6.15 183.82-5.6 184.7-5.05 185.99-5.05ZM214.9 0.61L214.9 0.61Q206.74 0.61 206.74-7.86L206.74-7.86 206.74-19.31 203.98-19.31Q203.25-19.31 202.97-19.62 202.69-19.92 202.69-20.65L202.69-20.65 202.69-23.66Q202.69-24.39 202.97-24.69 203.25-25 203.98-25L203.98-25 206.74-25 206.74-28.93Q206.74-29.52 206.99-29.83L206.99-29.83Q208.01-31.18 209.99-32.74L209.99-32.74Q210.33-32.98 210.6-32.98L210.6-32.98Q210.89-32.98 211.19-32.74L211.19-32.74Q212.24-31.93 212.96-31.23 213.68-30.52 214.19-29.83L214.19-29.83Q214.43-29.52 214.43-28.93L214.43-28.93 214.43-25 218.75-25Q219.49-25 219.77-24.69 220.05-24.39 220.05-23.66L220.05-23.66 220.05-20.65Q220.05-19.92 219.77-19.62 219.49-19.31 218.75-19.31L218.75-19.31 214.43-19.31 214.43-9.2Q214.43-5.3 217.27-5.3L217.27-5.3Q217.7-5.3 218.07-5.38 218.44-5.47 218.71-5.57L218.71-5.57Q219.22-5.76 219.43-5.71 219.63-5.66 219.8-5.18L219.8-5.18 221.22-1.39Q221.44-0.78 220.93-0.51L220.93-0.51Q220.56-0.34 219.16 0.13 217.75 0.61 214.9 0.61ZM237.55 0.61L237.55 0.61Q233.42 0.61 230.37-0.72 227.32-2.05 225.64-4.86 223.95-7.67 223.95-12.11L223.95-12.11Q223.95-18.77 227.37-22.19 230.79-25.61 236.45-25.61L236.45-25.61Q240.14-25.61 242.69-24.29 245.24-22.97 246.57-20.65 247.9-18.33 247.9-15.36L247.9-15.36Q247.9-12.45 246.41-11.3 244.92-10.16 242.07-10.16L242.07-10.16 231.59-10.16Q231.79-7.64 233.44-6.32 235.08-5 237.92-5L237.92-5Q240.16-5 241.52-5.68 242.87-6.35 243.41-6.74L243.41-6.74Q243.87-7.08 244.46-7.06L244.46-7.06Q244.92-7.06 245.79-6.87 246.66-6.69 247.51-6.2L247.51-6.2Q248.12-5.88 248.12-5.32L248.12-5.32Q248.12-5 248-4.42L248-4.42Q247.93-4.08 247.76-3.43 247.58-2.78 247.32-2.22L247.32-2.22Q247.17-1.95 246.85-1.71L246.85-1.71Q246.36-1.37 245.28-0.81 244.19-0.24 242.31 0.18 240.43 0.61 237.55 0.61ZM231.54-15.16L231.54-15.16 239.5-15.16Q240.75-15.16 240.75-16.31L240.75-16.31Q240.75-18.04 239.66-19.23 238.58-20.41 236.4-20.41L236.4-20.41Q234.04-20.41 232.92-18.9 231.81-17.38 231.54-15.16Z" opacity="1" transform="matrix(1,0,0,1,0,0)" fill="#ffffff" class="wordmark-text-0" data-fill-palette-color="quaternary" id="text-0"></path></svg></g></svg></g></svg></g></svg></g></svg></g><defs></defs></svg><rect width="395.52" height="102.99131851259496" fill="none" stroke="none" visibility="hidden"></rect></g></svg></g></svg>